<svg width="90" height="94" viewBox="0 0 90 94" fill="none" xmlns="http://www.w3.org/2000/svg">
<path d="M76.1121 6.34733H70.7606V2.79208C70.7606 2.05157 70.4664 1.3414 69.9428 0.817782C69.4192 0.294165 68.709 0 67.9685 0C67.228 0 66.5178 0.294165 65.9942 0.817782C65.4706 1.3414 65.1764 2.05157 65.1764 2.79208V6.34733H24.0212V2.79208C24.0212 2.05157 23.727 1.3414 23.2034 0.817782C22.6798 0.294165 21.9696 0 21.2291 0C20.4886 0 19.7784 0.294165 19.2548 0.817782C18.7312 1.3414 18.437 2.05157 18.437 2.79208V6.34733H13.0809C9.61233 6.35225 6.28731 7.73264 3.8351 10.1857C1.38289 12.6388 0.00369302 15.9643 0 19.4329V80.9191C0.00492405 84.3869 1.38467 87.7112 3.83674 90.1633C6.28882 92.6153 9.61314 93.9951 13.0809 94H76.1121C79.5818 93.9975 82.9088 92.6181 85.3622 90.1646C87.8157 87.7111 89.1952 84.3842 89.1976 80.9145V19.4329C89.1952 15.9631 87.8157 12.6362 85.3622 10.1827C82.9088 7.72923 79.5818 6.34979 76.1121 6.34733ZM83.6135 80.9145C83.611 82.9032 82.8199 84.8098 81.4136 86.216C80.0074 87.6223 78.1008 88.4134 76.1121 88.4158H13.0809C11.0934 88.4134 9.188 87.6228 7.78262 86.2174C6.37724 84.812 5.58662 82.9066 5.58416 80.9191V33.356H83.6181L83.6135 80.9145ZM83.6135 27.7719H5.58416V19.4329C5.58539 17.4446 6.37547 15.538 7.78098 14.1316C9.18649 12.7252 11.0926 11.934 13.0809 11.9315H18.437V15.1424C18.437 15.8829 18.7312 16.5931 19.2548 17.1167C19.7784 17.6403 20.4886 17.9345 21.2291 17.9345C21.9696 17.9345 22.6798 17.6403 23.2034 17.1167C23.727 16.5931 24.0212 15.8829 24.0212 15.1424V11.9315H65.1811V15.1424C65.1811 15.8829 65.4753 16.5931 65.9989 17.1167C66.5225 17.6403 67.2327 17.9345 67.9732 17.9345C68.7137 17.9345 69.4238 17.6403 69.9475 17.1167C70.4711 16.5931 70.7652 15.8829 70.7652 15.1424V11.9315H76.1167C78.1047 11.9339 80.0105 12.7244 81.4166 14.1297C82.8228 15.5349 83.6144 17.4403 83.6181 19.4282L83.6135 27.7719ZM15.8171 50.3551C15.8171 49.2047 16.1583 48.0801 16.7974 47.1235C17.4366 46.1669 18.3451 45.4214 19.408 44.9811C20.4708 44.5408 21.6404 44.4256 22.7688 44.6501C23.8971 44.8745 24.9336 45.4285 25.7471 46.242C26.5606 47.0555 27.1146 48.092 27.339 49.2203C27.5635 50.3487 27.4483 51.5183 27.008 52.5812C26.5678 53.644 25.8222 54.5525 24.8656 55.1917C23.909 55.8308 22.7844 56.172 21.634 56.172C20.0912 56.172 18.6117 55.5591 17.5208 54.4683C16.43 53.3774 15.8171 51.8979 15.8171 50.3551ZM38.782 50.3551C38.782 49.2047 39.1231 48.0801 39.7623 47.1235C40.4015 46.1669 41.3099 45.4214 42.3728 44.9811C43.4357 44.5408 44.6053 44.4256 45.7336 44.6501C46.862 44.8745 47.8984 45.4285 48.7119 46.242C49.5254 47.0555 50.0794 48.092 50.3039 49.2203C50.5283 50.3487 50.4131 51.5183 49.9729 52.5812C49.5326 53.644 48.787 54.5525 47.8305 55.1917C46.8739 55.8308 45.7493 56.172 44.5988 56.172C43.0561 56.172 41.5766 55.5591 40.4857 54.4683C39.3948 53.3774 38.782 51.8979 38.782 50.3551ZM61.7468 50.3551C61.7468 49.2047 62.088 48.0801 62.7271 47.1235C63.3663 46.1669 64.2748 45.4214 65.3377 44.9811C66.4005 44.5408 67.5701 44.4256 68.6985 44.6501C69.8268 44.8745 70.8633 45.4285 71.6768 46.242C72.4903 47.0555 73.0443 48.092 73.2687 49.2203C73.4932 50.3487 73.378 51.5183 72.9377 52.5812C72.4975 53.644 71.7519 54.5525 70.7953 55.1917C69.8387 55.8308 68.7141 56.172 67.5637 56.172C66.0209 56.172 64.5414 55.5591 63.4505 54.4683C62.3597 53.3774 61.7468 51.8979 61.7468 50.3551ZM15.8171 69.3366C15.8171 68.1862 16.1583 67.0615 16.7974 66.105C17.4366 65.1484 18.3451 64.4028 19.408 63.9626C20.4708 63.5223 21.6404 63.4071 22.7688 63.6316C23.8971 63.856 24.9336 64.41 25.7471 65.2235C26.5606 66.037 27.1146 67.0735 27.339 68.2018C27.5635 69.3302 27.4483 70.4998 27.008 71.5626C26.5678 72.6255 25.8222 73.534 24.8656 74.1731C23.909 74.8123 22.7844 75.1535 21.634 75.1535C20.0912 75.1535 18.6117 74.5406 17.5208 73.4498C16.43 72.3589 15.8171 70.8793 15.8171 69.3366ZM38.782 69.3366C38.7801 68.1858 39.1197 67.0602 39.7578 66.1024C40.3958 65.1447 41.3036 64.3976 42.3663 63.956C43.4291 63.5143 44.5989 63.3977 45.7279 63.6211C46.8569 63.8445 47.8942 64.3978 48.7086 65.2109C49.5231 66.024 50.078 67.0605 50.3032 68.1891C50.5284 69.3177 50.4137 70.4877 49.9738 71.5512C49.5338 72.6146 48.7882 73.5236 47.8314 74.1632C46.8747 74.8028 45.7497 75.1442 44.5988 75.1442C43.0577 75.1442 41.5796 74.5326 40.489 73.4437C39.3984 72.3549 38.7844 70.8777 38.782 69.3366ZM61.7468 69.3366C61.7468 68.1862 62.088 67.0615 62.7271 66.105C63.3663 65.1484 64.2748 64.4028 65.3377 63.9626C66.4005 63.5223 67.5701 63.4071 68.6985 63.6316C69.8268 63.856 70.8633 64.41 71.6768 65.2235C72.4903 66.037 73.0443 67.0735 73.2687 68.2018C73.4932 69.3302 73.378 70.4998 72.9377 71.5626C72.4975 72.6255 71.7519 73.534 70.7953 74.1731C69.8387 74.8123 68.7141 75.1535 67.5637 75.1535C66.0209 75.1535 64.5414 74.5406 63.4505 73.4498C62.3597 72.3589 61.7468 70.8793 61.7468 69.3366Z" fill="#DB5353"/>
</svg>
