<svg width="18" height="18" viewBox="0 0 18 18" fill="none" xmlns="http://www.w3.org/2000/svg">
<path d="M17.9391 6.42686C17.7932 5.97917 17.406 5.6537 16.9395 5.58575L12.2142 4.89913L10.1027 0.63268C9.68461 -0.210893 8.30282 -0.210893 7.88474 0.63268L5.77324 4.89913L1.0591 5.58575C0.593952 5.6537 0.2068 5.98031 0.0608593 6.42819C-0.0850817 6.87474 0.0361878 7.36589 0.373807 7.69478L3.79289 11.0273L2.98632 15.7291C2.90718 16.193 3.09772 16.663 3.47861 16.9401C3.86083 17.2159 4.36678 17.2519 4.7824 17.0329L8.99325 14.8125L13.2164 17.0329C13.3971 17.1282 13.595 17.1753 13.7916 17.1753C14.0477 17.1753 14.3037 17.0948 14.5202 16.9403C14.9013 16.6619 15.0916 16.1931 15.0125 15.7293L14.2073 11.0275L17.6263 7.69497C17.964 7.36703 18.085 6.87474 17.9391 6.42686Z" fill="black"/>
</svg>
