<svg width="78" height="94" viewBox="0 0 78 94" fill="none" xmlns="http://www.w3.org/2000/svg">
<path d="M45.5967 29.3167C45.0589 29.8545 45.0589 30.7264 45.5967 31.2639C45.8655 31.5327 46.218 31.6673 46.5703 31.6673C46.9226 31.6673 47.2751 31.5329 47.5439 31.2639L49.0234 29.7843C49.5612 29.2466 49.5612 28.3747 49.0234 27.8371C48.4857 27.2994 47.6138 27.2994 47.0763 27.8371L45.5967 29.3167Z" fill="#DB5353"/>
<path d="M44.0225 25.0962H46.1147C46.8751 25.0962 47.4916 24.4797 47.4916 23.7192C47.4916 22.9588 46.8751 22.3423 46.1147 22.3423H44.0225C43.262 22.3423 42.6455 22.9588 42.6455 23.7192C42.6455 24.4797 43.262 25.0962 44.0225 25.0962Z" fill="#DB5353"/>
<path d="M12.4754 22.0197C15.2943 24.4638 18.8055 25.6734 22.3116 25.6734C26.1833 25.6732 30.0485 24.198 32.965 21.2814C38.5226 15.7239 38.8468 6.7239 33.7033 0.791984C33.2872 0.312253 32.6847 0.0241944 32.0498 0.00161237C31.4137 -0.0224384 30.7935 0.223577 30.3446 0.672464L26.2218 4.79525C25.6841 5.33299 25.6841 6.2047 26.2218 6.74244C26.7596 7.28037 27.6314 7.28019 28.169 6.74244L31.9373 2.97436C35.8071 7.81702 35.4413 14.9102 31.0175 19.334C26.5934 23.7577 19.5003 24.1235 14.6576 20.2538L23.579 11.3323C24.1167 10.7945 24.1167 9.92266 23.579 9.38509C23.0412 8.84735 22.1693 8.84735 21.6318 9.38509L12.3557 18.6612C11.9068 19.1101 11.6624 19.7315 11.685 20.3662C11.7076 21.0009 11.9957 21.6034 12.4754 22.0197Z" fill="#DB5353"/>
<path d="M25.8369 14.4175C25.2992 14.9552 25.2992 15.8271 25.8369 16.3647L27.1566 17.6843C27.4254 17.9531 27.7779 18.0877 28.1302 18.0877C28.4825 18.0877 28.835 17.9533 29.1038 17.6843C29.6415 17.1466 29.6415 16.2747 29.1038 15.7371L27.7841 14.4175C27.2464 13.8797 26.3745 13.8797 25.8369 14.4175Z" fill="#DB5353"/>
<path d="M22.2695 15.7407C21.5091 15.7407 20.8926 16.3572 20.8926 17.1177V18.9839C20.8926 19.7444 21.5091 20.3609 22.2695 20.3609C23.03 20.3609 23.6465 19.7444 23.6465 18.9839V17.1177C23.6465 16.3572 23.03 15.7407 22.2695 15.7407Z" fill="#DB5353"/>
<path d="M28.8018 12.3357H30.6682C31.4286 12.3357 32.0451 11.7192 32.0451 10.9587C32.0451 10.1983 31.4286 9.58179 30.6682 9.58179H28.8018C28.0413 9.58179 27.4248 10.1983 27.4248 10.9587C27.4248 11.7192 28.0413 12.3357 28.8018 12.3357Z" fill="#DB5353"/>
<path d="M73.2746 56.9107H70.485C70.4322 56.7034 70.373 56.4958 70.3016 56.287C74.8511 55.2314 77.8907 52.472 77.8907 49.2111C77.8907 47.0312 76.5242 45.0373 74.1481 43.6385C78.2634 39.1603 78.8174 32.8623 75.313 29.358C74.6339 28.6789 73.849 28.154 72.9937 27.7762C72.9351 25.572 72.3233 23.4157 71.2133 21.5191C70.8293 20.8628 69.9857 20.6421 69.3295 21.0264C68.6731 21.4104 68.4526 22.2539 68.8367 22.9102C69.583 24.1855 70.0442 25.6105 70.1927 27.0817C69.5471 27.0292 68.8854 27.0413 68.2165 27.1175C67.7172 22.9728 64.181 19.7497 59.904 19.7497C57.5351 19.7497 55.3951 20.7405 53.8705 22.3269L52.4814 20.9379C54.3624 18.9955 56.9931 17.7834 59.904 17.7834C61.5888 17.7834 63.2604 18.1972 64.738 18.9802C65.4099 19.3362 66.2433 19.0803 66.5994 18.4083C66.9556 17.7364 66.6995 16.903 66.0275 16.5469C64.1542 15.5542 62.0368 15.0295 59.904 15.0295C56.2336 15.0295 52.9138 16.5496 50.5344 18.991L44.1821 12.6385C43.7363 12.1928 43.1218 11.9464 42.4888 11.9684C41.8552 11.9884 41.2508 12.2734 40.8308 12.7501C37.0017 17.0976 35.842 22.9413 37.2777 28.2008C35.7092 28.6848 34.3046 29.9044 33.2428 31.7075C31.1851 29.8099 28.6873 28.6009 26.1504 28.2855C24.2963 28.0547 22.565 28.3167 21.0843 29.0241C18.897 27.3817 16.1844 26.4033 13.2447 26.4033C6.02377 26.4033 0.149134 32.2779 0.149134 39.4988C0.149134 44.0892 2.52521 48.1323 6.11043 50.4708C5.7638 51.1306 5.5266 51.842 5.42415 52.5937C5.21798 54.1063 5.5758 55.5916 6.35809 56.9107H3.21387C2.33537 56.9107 1.4846 57.2759 0.879471 57.9128C0.270123 58.5541 -0.0407011 59.3923 0.00427937 60.2729C0.378994 67.6049 2.8386 74.6308 7.11707 80.5914C11.3082 86.4302 17.022 90.9609 23.6409 93.6939C24.1329 93.897 24.6587 94 25.2044 94H51.284C51.8295 94 52.3555 93.897 52.8475 93.6939C59.4665 90.9611 65.1803 86.4304 69.3713 80.5914C73.6498 74.6308 76.1094 67.6047 76.4841 60.2729C76.5291 59.3923 76.2183 58.5541 75.6089 57.9128C75.0038 57.2759 74.1531 56.9107 73.2746 56.9107ZM59.9041 22.5037C62.883 22.5037 65.3266 24.833 65.5128 27.7655C64.1463 28.2671 62.8095 29.0298 61.5862 30.043L55.817 24.2738C56.8425 23.1854 58.2946 22.5037 59.9041 22.5037ZM59.3583 33.4336C59.5335 33.8943 59.9414 34.226 60.4281 34.3039C60.9145 34.3812 61.4058 34.1934 61.7159 33.8104C61.9806 33.4832 62.2575 33.1746 62.5385 32.8933C65.9616 29.4704 70.819 28.7582 73.366 31.3052C75.9132 33.8526 75.2008 38.7096 71.7777 42.1327C71.5014 42.409 71.1976 42.682 70.8748 42.944C70.4924 43.2543 70.3049 43.7452 70.3829 44.2313C70.461 44.7175 70.7925 45.1249 71.2528 45.3C73.6485 46.2116 75.1369 47.7103 75.1369 49.211C75.1369 51.3832 72.1309 53.3875 68.1448 53.8731C67.6861 53.929 67.2861 54.2111 67.0795 54.6244C66.873 55.0377 66.8875 55.527 67.1181 55.9274C67.3101 56.2608 67.4677 56.5894 67.5936 56.9107H67.0601L58.384 48.2346L66.1983 40.4203C66.736 39.8826 66.736 39.0107 66.1983 38.4731C65.6606 37.9354 64.7887 37.9354 64.2511 38.4731L56.4368 46.2874L50.1118 39.9624C49.6523 39.5029 49.0183 39.2532 48.366 39.2739C47.7146 39.2962 47.0954 39.5906 46.6667 40.0818C45.4594 41.4651 44.5245 43.0007 43.8546 44.6195C43.3664 43.2557 43.1173 41.9006 43.1382 40.6548C43.1553 39.638 43.3829 37.8175 44.7158 37.0481C45.0995 36.8265 45.5523 36.717 46.0527 36.717C46.8538 36.717 47.7769 36.9976 48.7345 37.5476C49.1347 37.7775 49.6233 37.7916 50.0358 37.5852C50.4485 37.3789 50.7305 36.9798 50.7869 36.5219C51.2762 32.5461 53.2795 29.5482 55.4467 29.5482C56.9479 29.5479 58.4468 31.0368 59.3583 33.4336ZM62.8732 56.6186C62.7124 56.7236 62.5479 56.8209 62.3803 56.9107H56.0536C55.4893 56.6085 54.959 56.2209 54.4837 55.7456C52.2081 53.47 51.9173 49.9499 53.6107 47.3561L62.8732 56.6186ZM35.488 49.7959C31.2982 49.7959 27.8173 52.8885 27.2076 56.9107H25.226C25.8501 51.8011 30.2126 47.8296 35.488 47.8296C40.7634 47.8296 45.1259 51.8011 45.75 56.9107H43.7685C43.1587 52.8883 39.6778 49.7959 35.488 49.7959ZM40.9654 56.9107H30.0109C30.5848 54.4162 32.8219 52.5498 35.488 52.5498C38.1542 52.5498 40.3914 54.4162 40.9654 56.9107ZM45.4102 49.6391C45.6685 46.9873 46.681 44.3931 48.469 42.2142L51.6345 45.3797C49.0897 48.7997 49.1579 53.5623 51.8381 56.9107H48.5217C48.2564 54.1471 47.1275 51.6333 45.4102 49.6391ZM42.5857 14.9367L54.5258 26.8768C51.6791 27.3897 49.3324 30.2624 48.3748 34.3663C47.8112 34.1743 47.2527 34.0492 46.7034 33.9929C46.2723 33.9488 45.8497 33.9512 45.4393 33.9945C44.365 30.8991 42.4304 28.7371 40.1285 28.1368C38.6846 23.723 39.483 18.7127 42.5857 14.9367ZM20.8958 32.4771C22.0829 31.29 23.8285 30.7719 25.8108 31.0183C27.921 31.2806 30.0208 32.3627 31.723 34.0652C32.0049 34.347 32.2815 34.6555 32.5459 34.9821C32.8558 35.3652 33.3473 35.5529 33.8336 35.4758C34.3202 35.3981 34.7283 35.0662 34.9034 34.6055C35.815 32.2087 37.3138 30.7198 38.8151 30.7198C40.4515 30.7198 41.9935 32.4298 42.8615 34.9786C41.3028 36.122 40.4269 38.0944 40.3845 40.6083C40.3523 42.5228 40.8131 44.6118 41.6982 46.6447C39.8491 45.6445 37.7339 45.0755 35.488 45.0755C35.4728 45.0755 35.4577 45.0766 35.4425 45.0766L30.0105 39.6446C29.4727 39.1069 28.6009 39.1069 28.0633 39.6446C27.5255 40.1824 27.5255 41.0543 28.0633 41.5918L32.0172 45.5457C27.7211 46.7282 24.3007 50.0465 22.981 54.2846C20.6558 53.3964 19.1247 51.9326 19.1247 50.3825C19.1247 48.8818 20.6129 47.3831 23.0088 46.4716C23.4689 46.2964 23.8006 45.889 23.8786 45.4029C23.9567 44.9167 23.7692 44.426 23.3868 44.1155C23.0637 43.8533 22.7598 43.5803 22.4839 43.3042C20.7814 41.6017 19.6993 39.502 19.4368 37.3917C19.1904 35.4098 19.7085 33.6644 20.8958 32.4771ZM10.1243 44.1676C8.6185 43.1582 7.62324 41.444 7.62324 39.4988C7.62324 36.3992 10.1451 33.8774 13.2447 33.8774C14.5557 33.8774 15.761 34.3309 16.7179 35.0862C16.6685 35.431 16.6373 35.7829 16.6269 36.142C15.2141 36.1741 13.8684 36.599 12.7409 37.456C10.7759 38.9495 9.87024 41.4648 10.1243 44.1676ZM12.859 48.9884C13.2935 48.91 13.6642 48.6282 13.8557 48.2302C14.047 47.8324 14.036 47.3666 13.826 46.9783C12.2963 44.1498 12.5408 41.0673 14.4072 39.6487C15.1188 39.1076 15.985 38.8607 16.909 38.8744C17.4003 41.0058 18.5082 43.0659 20.1129 44.8106C17.7371 46.2092 16.3708 48.2032 16.3708 50.383C16.3708 53.183 18.6135 55.6116 22.1275 56.9109H9.86694C8.63227 55.8189 7.95665 54.4052 8.15272 52.9658C8.41838 51.0166 10.2657 49.4555 12.859 48.9884ZM2.90304 39.4988C2.90304 33.7964 7.54228 29.1572 13.2447 29.1572C15.2648 29.1572 17.1503 29.741 18.7444 30.7467C18.2932 31.234 17.9104 31.771 17.6003 32.3512C16.3304 31.5737 14.8398 31.1235 13.2447 31.1235C8.62658 31.1235 4.86933 34.8805 4.86933 39.4988C4.86933 42.8711 6.87344 45.7831 9.75274 47.1094C9.04866 47.4433 8.40994 47.8496 7.85347 48.32C4.88641 46.5004 2.90304 43.2271 2.90304 39.4988ZM73.0372 65.5448H60.0587C59.2983 65.5448 58.6818 66.1613 58.6818 66.9217C58.6818 67.6822 59.2983 68.2987 60.0587 68.2987H72.3498C71.2334 72.1088 69.4782 75.7195 67.1341 78.9853C63.2432 84.4059 57.9395 88.6118 51.7965 91.1482C51.6395 91.213 51.4671 91.2459 51.284 91.2459H25.2044C25.0213 91.2459 24.8489 91.213 24.692 91.1482C18.5489 88.6118 13.2452 84.4059 9.35435 78.9851C7.01022 75.7193 5.25506 72.1086 4.13863 68.2985H53.4494C54.2098 68.2985 54.8263 67.682 54.8263 66.9215C54.8263 66.1611 54.2098 65.5446 53.4494 65.5446H3.45125C3.08278 63.77 2.84815 61.9614 2.7547 60.132C2.74699 59.9791 2.8162 59.8723 2.87587 59.8095C2.92746 59.7553 3.03982 59.6644 3.21387 59.6644H73.2746C73.4486 59.6644 73.5611 59.7553 73.6125 59.8095C73.6722 59.8723 73.7416 59.9791 73.7337 60.132C73.6403 61.9616 73.4056 63.7701 73.0372 65.5448Z" fill="#DB5353"/>
<path d="M52.1361 13.6303C52.3364 13.6303 52.5393 13.6039 52.7405 13.5501L61.7779 11.1287H61.7781C62.8881 10.8311 63.6113 9.74932 63.4605 8.6125C63.1695 6.41782 62.1868 4.42895 60.6189 2.86106C59.051 1.29317 57.0623 0.310576 54.8676 0.0195801C53.7317 -0.130049 52.6492 0.592026 52.3513 1.7024L49.9298 10.7396C49.7152 11.541 49.9372 12.3696 50.5238 12.9563C50.9633 13.3957 51.5385 13.6303 52.1361 13.6303ZM54.9047 2.81351C56.3358 3.08339 57.6314 3.7682 58.6717 4.80826C59.7119 5.8485 60.3965 7.14394 60.6664 8.57524L52.7957 10.6842L54.9047 2.81351Z" fill="#DB5353"/>
</svg>
