<svg width="94" height="94" viewBox="0 0 94 94" fill="none" xmlns="http://www.w3.org/2000/svg">
<g clip-path="url(#clip0_152_289)">
<path d="M87.5328 53.6894C87.5005 52.8697 86.9296 52.1712 86.1329 51.9761C85.3368 51.7825 84.507 52.1396 84.1019 52.8525C83.0828 54.644 78.8952 55.6358 75.1602 55.9614C79.1362 45.5481 77.5785 37.7847 75.4406 32.9725C72.8968 27.2467 69.0298 24.3686 68.8663 24.2489C68.2782 23.8179 67.4908 23.7755 66.8597 24.142C66.2285 24.5078 65.875 25.2128 65.9567 25.9371C66.3598 29.4828 63.6489 31.2463 62.4641 31.8394C59.7984 33.1755 55.5606 33.3261 52.5571 30.5004C47.6739 25.9063 48.0978 15.7217 53.7197 2.55665C53.9857 1.93343 53.8868 1.21482 53.4629 0.686267C53.0391 0.15843 52.3585 -0.0932961 51.6922 0.0314914C47.2902 0.857671 42.5784 2.54302 39.689 4.32662C38.8262 4.85948 38.5587 5.99045 39.0916 6.85321C39.6237 7.71597 40.7554 7.98419 41.6181 7.45133C43.4125 6.34402 46.1478 5.24173 49.0043 4.43491C42.3009 22.1569 46.6763 30.0092 50.0406 33.1748C54.3515 37.2297 60.2122 37.0747 64.1093 35.1226C66.6015 33.8733 68.3399 31.9585 69.151 29.6807C70.1077 30.8526 71.1878 32.4447 72.085 34.4635C75.0139 41.0558 74.5405 48.6907 70.6793 57.1562C70.4211 57.7228 70.467 58.3811 70.8019 58.9061C71.1376 59.4304 71.7149 59.7502 72.3381 59.7538C72.455 59.7545 75.2699 59.7667 78.4262 59.2353C80.5892 58.8717 82.3943 58.3388 83.8336 57.6425C82.9544 73.5278 72.6128 81.6404 66.2092 85.1646C63.5377 86.6348 60.6999 87.788 57.7774 88.6256C58.4351 88.1272 59.0619 87.608 59.6564 87.0658C62.5932 84.3907 64.7705 81.1857 66.1267 77.5411C66.4803 76.5908 65.9969 75.5337 65.0466 75.1801C64.0964 74.8266 63.0393 75.3099 62.6857 76.2602C62.3967 77.0369 62.0639 77.787 61.6917 78.5114C62.7037 73.7938 61.4113 69.4564 57.9495 65.9638C57.5867 65.598 57.0861 65.3994 56.5711 65.4223C56.0562 65.4431 55.5736 65.6791 55.2415 66.0735C52.7135 69.0734 49.2854 69.9111 46.5078 68.2085C43.9332 66.63 41.8885 62.5092 44.5994 56.0891C44.9049 55.3654 44.7163 54.5278 44.1304 54.005C43.5437 53.4822 42.6903 53.3904 42.0061 53.7755C36.5564 56.85 32.7704 60.7829 30.7516 65.4653C28.9895 69.5532 28.6775 74.0728 29.8487 78.5343C30.4532 80.835 31.4379 83.0468 32.7288 85.0491C31.075 83.6126 29.635 81.9172 28.4861 80.0024C24.7446 73.7666 24.6384 66.364 28.1956 59.6936C28.9852 58.2133 29.9641 56.561 31.0012 54.8118C34.5275 48.8607 38.4411 42.2549 38.7287 36.4888C40.3301 37.3781 42.4056 38.7135 44.3506 40.515C49.3794 45.1737 51.2375 50.6852 49.8721 56.8959C49.7315 57.5363 49.9431 58.2026 50.4264 58.6451C50.9098 59.0868 51.5918 59.2382 52.2172 59.0409C52.4417 58.9707 56.9749 57.5026 60.4195 53.4958C62.0991 56.6908 63.2788 60.3197 63.8002 63.9579C63.9436 64.9619 64.8745 65.6583 65.8778 65.5148C66.8812 65.3714 67.5783 64.4405 67.4348 63.4372C66.7055 58.3467 64.8129 53.2641 62.1063 49.1254C61.757 48.5911 61.1567 48.2762 60.5184 48.2949C59.8809 48.3128 59.2985 48.6599 58.9794 49.2121C57.6153 51.5745 55.5958 53.1731 53.9441 54.1728C54.2826 48.0309 51.8371 42.4048 46.7567 37.7388C42.3267 33.6703 37.4708 31.7863 37.2664 31.7082C36.6223 31.4615 35.8937 31.597 35.3809 32.0589C34.8689 32.5214 34.6587 33.2314 34.8373 33.8977C36.1727 38.8813 31.5534 46.6762 27.842 52.9393C26.7835 54.7257 25.7838 56.4125 24.9554 57.9652C20.7765 65.8017 20.9156 74.5225 25.3377 81.8914C26.4213 83.698 27.7259 85.3367 29.2032 86.7861C27.5215 86.0065 25.9157 85.1 24.4104 84.063C14.3019 77.1029 9.48105 65.1885 10.635 50.257C13.5115 52.9952 17.8669 56.6836 20.9378 57.2136C21.5087 57.3111 22.0925 57.1347 22.5127 56.736C22.9337 56.3372 23.141 55.7635 23.0729 55.1883C23.0442 54.9473 20.362 30.9315 32.2196 15.5955C32.84 14.793 32.693 13.6405 31.8905 13.0202C31.0879 12.3998 29.9355 12.5475 29.3151 13.3493C22.616 22.0142 20.2859 33.0572 19.5114 40.7954C19.023 45.6786 19.0675 49.8454 19.1944 52.5075C16.4254 50.7519 12.7485 47.3102 10.5647 44.9844C10.0806 44.4688 9.34336 44.2766 8.66993 44.491C7.99579 44.7054 7.50525 45.2871 7.40771 45.987C4.88184 64.1264 10.1803 78.7229 22.3277 87.0873C28.646 91.4377 36.4251 93.8244 44.8253 93.9908C45.1258 93.9965 45.4256 94.0001 45.7268 94.0001C46.0581 94.0001 46.3895 93.9951 46.7208 93.9879C46.8721 93.9929 47.0235 94.0001 47.1741 94.0001C47.296 94.0001 47.4172 93.9865 47.5362 93.9628C54.7151 93.681 61.8839 91.7353 67.9792 88.3811C74.0435 85.0434 79.0186 80.3445 82.3677 74.7929C86.0963 68.613 87.834 61.5123 87.5328 53.6894ZM39.8059 59.6721C39.562 61.465 39.6244 63.1855 39.9995 64.7783C40.6657 67.6025 42.2959 69.9326 44.5901 71.3397C46.6154 72.5811 49.0322 73.0128 51.3953 72.5546C53.2542 72.1945 55.0077 71.311 56.5511 69.9685C58.2106 72.2699 58.7284 74.8969 58.0901 77.8007C57.0739 82.4278 52.9925 87.263 48.2419 89.6885C47.694 89.9 47.1332 90.1023 46.5573 90.2945C46.5143 90.2952 46.4712 90.2959 46.4282 90.2966C40.8192 89.8484 35.1959 84.4359 33.4015 77.6027C32.5115 74.2134 31.6208 66.3008 39.8059 59.6721Z" fill="#DB5353"/>
<path d="M64.0839 68.9407L64.0832 68.9773C64.048 69.9907 64.8405 70.8405 65.8538 70.8756C65.8754 70.8764 65.8969 70.8771 65.9191 70.8771C66.9031 70.8771 67.7178 70.0961 67.7522 69.105L67.7543 69.0483C67.7838 68.0349 66.9863 67.1887 65.9729 67.1593C64.956 67.1292 64.114 67.9274 64.0839 68.9407Z" fill="#DB5353"/>
<path d="M36.3428 10.4656C36.3428 11.4797 35.5209 12.3015 34.5069 12.3015C33.4928 12.3015 32.6709 11.4797 32.6709 10.4656C32.6709 9.45152 33.4928 8.62964 34.5069 8.62964C35.5209 8.62964 36.3428 9.45152 36.3428 10.4656Z" fill="#DB5353"/>
</g>
<defs>
<clipPath id="clip0_152_289">
<rect width="94" height="94" fill="white"/>
</clipPath>
</defs>
</svg>
