<svg width="22" height="22" viewBox="0 0 22 22" fill="none" xmlns="http://www.w3.org/2000/svg">
<path d="M11.155 21.689C17.1443 21.689 21.9995 16.8337 21.9995 10.8445C21.9995 4.85524 17.1443 0 11.155 0C5.16579 0 0.310547 4.85524 0.310547 10.8445C0.310547 16.8337 5.16579 21.689 11.155 21.689Z" fill="#111111"/>
<path d="M12.1142 10.0637L16.1813 5.30176H15.2173L11.6868 9.43632L8.86565 5.30176H5.6123L9.8778 11.5546L5.6123 16.5479H6.57626L10.3052 12.1812L13.2846 16.5479H16.5379L12.1142 10.0637ZM10.7944 11.6092L10.3622 10.9867L6.92328 6.03276H8.40376L11.1783 10.0308L11.6105 10.6533L15.2181 15.8506H13.7376L10.7944 11.6092Z" fill="white"/>
</svg>
